<svg xmlns="http://www.w3.org/2000/svg" viewBox="0 0 51.12 53.8"><defs><style>.cls-1{isolation:isolate;}.cls-10,.cls-2{fill:#f9b80e;}.cls-3{fill:#f5961b;}.cls-4{fill:#ee5135;}.cls-5{fill:#f27328;}.cls-10,.cls-6{mix-blend-mode:multiply;}.cls-7{fill:#bc2d1a;}.cls-8{fill:#b2160f;}.cls-9{fill:#d12d1c;}</style></defs><title>Asset 3</title><g class="cls-1"><g id="Layer_2" data-name="Layer 2"><g id="Layer_1-2" data-name="Layer 1"><path class="cls-2" d="M41.68,41.61h-.07v-23h.07c4.15,0,7.51,3.08,7.51,6.89v9.2C49.19,38.52,45.83,41.61,41.68,41.61Z"/><path class="cls-2" d="M9.51,41.61H9.43c-4.14,0-7.5-3.09-7.5-6.89v-9.2c0-3.81,3.36-6.89,7.5-6.89h.08Z"/><rect class="cls-3" x="12.58" y="11.83" width="25.76" height="31.35"/><rect class="cls-3" x="12.58" y="11.83" width="25.76" height="31.35"/><path class="cls-4" d="M35,0h0Z"/><path class="cls-5" d="M11.45,16.65l-4-4.46v29a2.12,2.12,0,0,0,2.2,2h2.91V17.93Z"/><path class="cls-5" d="M39.63,16.55l-1.28,1.38V43.18h3.1a2.12,2.12,0,0,0,2.2-2v-29Z"/><polygon class="cls-4" points="11.45 16.65 7.47 12.19 11.45 16.65 11.45 16.65"/><path class="cls-5" d="M12.78.89a6.44,6.44,0,0,0-1.33,1,5.85,5.85,0,0,0-1.36,2.22l-2.62,8,4,4.46,1.13,1.28L14.47,5.39A5,5,0,0,0,12.78.89Z"/><polygon class="cls-4" points="39.63 16.55 43.65 12.19 39.63 16.55 39.63 16.55"/><path class="cls-5" d="M41,4.14a5.87,5.87,0,0,0-1.37-2.22,6.45,6.45,0,0,0-1.31-1,5,5,0,0,0-1.67,4.48l1.7,12.54,1.28-1.38,4-4.36Z"/><g class="cls-6"><rect class="cls-4" x="14.92" y="22.55" width="4.56" height="2.04"/><polygon class="cls-4" points="18.48 24.59 15.92 24.59 14.92 27.92 14.92 30.05 19.48 30.05 19.48 27.92 18.48 24.59"/><rect class="cls-4" x="15.75" y="28.67" width="2.89" height="14.98"/><rect class="cls-4" x="15.75" y="17.36" width="2.89" height="6.21"/><rect class="cls-4" x="32.66" y="22.55" width="4.56" height="2.04"/><polygon class="cls-4" points="36.22 24.59 33.66 24.59 32.66 27.92 32.66 30.05 37.22 30.05 37.22 27.92 36.22 24.59"/><rect class="cls-4" x="33.49" y="28.67" width="2.89" height="14.98"/><polygon class="cls-4" points="36.39 23.57 33.49 23.57 33.49 17.36 36.39 16.55 36.39 23.57"/></g><rect class="cls-7" x="14.41" y="22.08" width="4.56" height="2.04"/><polygon class="cls-8" points="17.97 24.12 15.41 24.12 14.41 27.45 14.41 29.58 18.97 29.58 18.97 27.45 17.97 24.12"/><rect class="cls-4" x="15.24" y="28.2" width="2.89" height="14.98"/><rect class="cls-4" x="15.24" y="16.89" width="2.89" height="6.21"/><rect class="cls-7" x="32.15" y="22.08" width="4.56" height="2.04"/><polygon class="cls-8" points="35.71 24.12 33.15 24.12 32.15 27.45 32.15 29.58 36.71 29.58 36.71 27.45 35.71 24.12"/><rect class="cls-4" x="32.98" y="28.2" width="2.89" height="14.98"/><rect class="cls-4" x="32.98" y="16.89" width="2.89" height="6.21"/><ellipse class="cls-8" cx="25.56" cy="48.49" rx="36.83" ry="6.82"/><ellipse class="cls-9" cx="25.56" cy="48.49" rx="34.82" ry="6.81"/><path class="cls-4" d="M36.5,53.8H14.62a33.78,33.78,0,0,1,0-10.62H36.5A33.78,33.78,0,0,1,36.5,53.8Z"/><path class="cls-8" d="M33.61,53.8H17.51a33.78,33.78,0,0,1,0-10.62h16.1A33.78,33.78,0,0,1,33.61,53.8Z"/><path class="cls-9" d="M33,53.8H18.14a33.78,33.78,0,0,1,0-10.62H33A33.78,33.78,0,0,1,33,53.8Z"/><path class="cls-10" d="M14.47,6.33,13.24,14.5a4,4,0,0,0,4.14,4.37H33.61a4,4,0,0,0,4.15-4.32L36.65,6.33a5,5,0,0,1,1.67-4.48A6.65,6.65,0,0,0,35,1H15.77a6.72,6.72,0,0,0-3,.88A5,5,0,0,1,14.47,6.33Z"/><path class="cls-2" d="M14.47,5.39l-1.23,8.17a4,4,0,0,0,4.14,4.37H33.61a4,4,0,0,0,4.15-4.32L36.65,5.39A5,5,0,0,1,38.32.91,6.75,6.75,0,0,0,35,0H15.77a6.72,6.72,0,0,0-3,.88A5,5,0,0,1,14.47,5.39Z"/></g></g></g></svg>