<svg xmlns="http://www.w3.org/2000/svg" xmlns:xlink="http://www.w3.org/1999/xlink" viewBox="0 0 675.65 413.22"><defs><style>.cls-1,.cls-21,.cls-24,.cls-26{fill:none;}.cls-2{isolation:isolate;}.cls-3{opacity:0.05;fill:url(#linear-gradient);}.cls-4{clip-path:url(#clip-path);}.cls-5{fill:url(#linear-gradient-2);}.cls-12,.cls-14,.cls-15,.cls-43,.cls-44,.cls-45,.cls-46,.cls-47,.cls-48,.cls-49,.cls-50,.cls-51,.cls-6,.cls-9{opacity:0.25;}.cls-11,.cls-14,.cls-15,.cls-21,.cls-24,.cls-26,.cls-43,.cls-44,.cls-45,.cls-46,.cls-47,.cls-48,.cls-49,.cls-50,.cls-51,.cls-6,.cls-9{mix-blend-mode:overlay;}.cls-6{fill:url(#linear-gradient-3);}.cls-7{opacity:0.52;}.cls-8{fill:url(#linear-gradient-4);}.cls-10,.cls-21,.cls-24,.cls-26{opacity:0.55;}.cls-11{opacity:0.6;}.cls-13{fill:url(#linear-gradient-5);}.cls-14{fill:url(#linear-gradient-6);}.cls-15{fill:url(#linear-gradient-7);}.cls-16{fill:url(#linear-gradient-8);}.cls-17{fill:url(#linear-gradient-9);}.cls-18{fill:url(#linear-gradient-10);}.cls-19{fill:#014f5b;}.cls-20{fill:url(#linear-gradient-11);}.cls-21,.cls-24,.cls-26{stroke:#000;stroke-linecap:round;stroke-linejoin:round;}.cls-21{stroke-width:0.37px;}.cls-22{fill:url(#linear-gradient-12);}.cls-23{fill:url(#linear-gradient-13);}.cls-24{stroke-width:0.4px;}.cls-25{fill:url(#linear-gradient-14);}.cls-26{stroke-width:0.34px;}.cls-27{fill:url(#linear-gradient-15);}.cls-28{fill:url(#linear-gradient-16);}.cls-29{fill:#005b79;}.cls-30{fill:#3e290a;}.cls-31{fill:#ff9f22;}.cls-32{fill:#a03737;}.cls-33{fill:#82201d;}.cls-34{fill:#600d0d;}.cls-35{fill:#860b09;}.cls-36{fill:url(#linear-gradient-17);}.cls-37{fill:url(#linear-gradient-18);}.cls-38{fill:url(#linear-gradient-19);}.cls-39{fill:url(#linear-gradient-20);}.cls-40{fill:url(#linear-gradient-21);}.cls-41{fill:#d32c22;}.cls-42{fill:url(#linear-gradient-22);}.cls-43{fill:url(#linear-gradient-23);}.cls-44{fill:url(#linear-gradient-24);}.cls-45{fill:url(#linear-gradient-25);}.cls-46{fill:url(#linear-gradient-26);}.cls-47{fill:url(#linear-gradient-27);}.cls-48{fill:url(#linear-gradient-28);}.cls-49{fill:url(#linear-gradient-29);}.cls-50{fill:url(#linear-gradient-30);}.cls-51{fill:url(#linear-gradient-31);}.cls-52{fill:url(#linear-gradient-32);}.cls-53{clip-path:url(#clip-path-2);}.cls-54{fill:url(#linear-gradient-33);}</style><linearGradient id="linear-gradient" x1="209.76" y1="51.2" x2="553.5" y2="690.32" gradientUnits="userSpaceOnUse"><stop offset="0"/><stop offset="1" stop-opacity="0"/></linearGradient><clipPath id="clip-path"><path class="cls-1" d="M644.87,20.64V383.38h-422l-14.09-27.76-6.63-13.07s-11-29.15,13.09-55.26a82,82,0,0,1,18-14.45c9.65-5.86,18.86-10.63,27.49-14.77,33.09-15.86,57.75-22.47,66.65-45.83,3.16-8.29,7.27-18.56,12.4-29.23a219.42,219.42,0,0,1,14.37-25.72c11.91-18.07,27.06-33.53,45.78-38,38-9.07,53.33-7.16,67.9-33.16s34.87-57.48,62.51-65.49Z"/></clipPath><linearGradient id="linear-gradient-2" x1="372.94" y1="68.87" x2="455.86" y2="253.7" gradientUnits="userSpaceOnUse"><stop offset="0" stop-color="#bde325"/><stop offset="1" stop-color="#8fc470"/></linearGradient><linearGradient id="linear-gradient-3" x1="419.89" y1="106.31" x2="440.62" y2="253.99" xlink:href="#linear-gradient"/><linearGradient id="linear-gradient-4" x1="503.46" y1="5.44" x2="509.5" y2="342.27" gradientUnits="userSpaceOnUse"><stop offset="0" stop-color="#1c754d"/><stop offset="1" stop-color="#38935f"/></linearGradient><linearGradient id="linear-gradient-5" x1="463.83" y1="70.58" x2="519.54" y2="172.28" gradientUnits="userSpaceOnUse"><stop offset="0" stop-color="#06922c"/><stop offset="1" stop-color="#60d857"/></linearGradient><linearGradient id="linear-gradient-6" x1="504.91" y1="199.92" x2="393.92" y2="46.62" xlink:href="#linear-gradient"/><linearGradient id="linear-gradient-7" x1="594.22" y1="135.26" x2="483.24" y2="-18.04" xlink:href="#linear-gradient"/><linearGradient id="linear-gradient-8" x1="321.76" y1="292.64" x2="370.12" y2="34.4" gradientUnits="userSpaceOnUse"><stop offset="0" stop-color="#067f5d"/><stop offset="1" stop-color="#60b074"/></linearGradient><linearGradient id="linear-gradient-9" x1="571.02" y1="373.21" x2="466.52" y2="-61.21" xlink:href="#linear-gradient-4"/><linearGradient id="linear-gradient-10" x1="324.65" y1="516.99" x2="314.29" y2="-48.83" gradientTransform="translate(-29.59 -27.37) rotate(-4.41)" xlink:href="#linear-gradient-5"/><linearGradient id="linear-gradient-11" x1="521.34" y1="298.52" x2="471.25" y2="218.63" xlink:href="#linear-gradient-5"/><linearGradient id="linear-gradient-12" x1="376.56" y1="336.07" x2="326.46" y2="256.18" xlink:href="#linear-gradient-5"/><linearGradient id="linear-gradient-13" x1="405.71" y1="475.27" x2="452.53" y2="403.23" gradientTransform="matrix(1.04, -0.96, 0.68, 0.73, -229.1, 324.34)" xlink:href="#linear-gradient-5"/><linearGradient id="linear-gradient-14" x1="434.09" y1="546.65" x2="480.91" y2="474.61" gradientTransform="matrix(0.57, -1.29, 0.91, 0.4, -145.16, 602.38)" xlink:href="#linear-gradient-5"/><linearGradient id="linear-gradient-15" x1="520.7" y1="279.12" x2="546.2" y2="239.89" xlink:href="#linear-gradient-5"/><linearGradient id="linear-gradient-16" x1="463.56" y1="192.02" x2="448.02" y2="179.36" gradientUnits="userSpaceOnUse"><stop offset="0" stop-color="#ffaf97"/><stop offset="1" stop-color="#fc8a70"/></linearGradient><linearGradient id="linear-gradient-17" x1="474.86" y1="282.24" x2="451.98" y2="251.14" xlink:href="#linear-gradient-16"/><linearGradient id="linear-gradient-18" x1="416.66" y1="289.8" x2="407.59" y2="253.39" xlink:href="#linear-gradient-16"/><linearGradient id="linear-gradient-19" x1="453.05" y1="236.65" x2="454" y2="235.78" gradientUnits="userSpaceOnUse"><stop offset="0" stop-color="#f0610e"/><stop offset="1" stop-color="#ba4509"/></linearGradient><linearGradient id="linear-gradient-20" x1="439.38" y1="212.24" x2="457.71" y2="212.24" xlink:href="#linear-gradient-16"/><linearGradient id="linear-gradient-21" x1="454.96" y1="204.98" x2="454.43" y2="204.54" xlink:href="#linear-gradient-16"/><linearGradient id="linear-gradient-22" x1="451.27" y1="442.27" x2="404.63" y2="282.27" xlink:href="#linear-gradient-5"/><linearGradient id="linear-gradient-23" x1="535.58" y1="267.88" x2="618.49" y2="510.57" xlink:href="#linear-gradient"/><linearGradient id="linear-gradient-24" x1="189.53" y1="395.37" x2="521.18" y2="278.78" xlink:href="#linear-gradient"/><linearGradient id="linear-gradient-25" x1="407.74" y1="341.77" x2="456.1" y2="421.66" xlink:href="#linear-gradient"/><linearGradient id="linear-gradient-26" x1="458.57" y1="295.66" x2="487.62" y2="343.64" xlink:href="#linear-gradient"/><linearGradient id="linear-gradient-27" x1="377.78" y1="312.28" x2="406.84" y2="360.27" xlink:href="#linear-gradient"/><linearGradient id="linear-gradient-28" x1="536.48" y1="282.78" x2="565.53" y2="330.77" xlink:href="#linear-gradient"/><linearGradient id="linear-gradient-29" x1="617.39" y1="255.28" x2="646.45" y2="303.26" xlink:href="#linear-gradient"/><linearGradient id="linear-gradient-30" x1="317.14" y1="350.55" x2="346.2" y2="398.54" xlink:href="#linear-gradient"/><linearGradient id="linear-gradient-31" x1="377.79" y1="340.13" x2="393.73" y2="366.45" xlink:href="#linear-gradient"/><linearGradient id="linear-gradient-32" x1="364.02" y1="-12.62" x2="389.93" y2="369.99" xlink:href="#linear-gradient-5"/><clipPath id="clip-path-2"><rect class="cls-1" x="88.57" y="213.43" width="220.24" height="169.95"/></clipPath><linearGradient id="linear-gradient-33" x1="193.95" y1="239.25" x2="201.72" y2="373.98" xlink:href="#linear-gradient-5"/></defs><title>Asset 1</title><g class="cls-2"><g id="Layer_2" data-name="Layer 2"><g id="OBJECTS"><path class="cls-3" d="M0,254.89s10.41-33.25,38.41-31.18c69.09,5.13,85.51,96.82,85.51,96.82s13.88-49.55,95.93-77,99.32-18.56,133-68S394.31,40.31,466,20.64H581.73L372.17,383.38H0V254.89"/><g class="cls-4"><path class="cls-5" d="M644.87,20.64V383.38h-422l-14.09-27.76-6.63-13.07s-11-29.15,13.09-55.26a82,82,0,0,1,18-14.45c9.65-5.86,18.86-10.63,27.49-14.77,33.09-15.86,57.75-22.47,66.65-45.83,3.16-8.29,7.27-18.56,12.4-29.23a219.42,219.42,0,0,1,14.37-25.72c11.91-18.07,27.06-33.53,45.78-38,38-9.07,53.33-7.16,67.9-33.16s34.87-57.48,62.51-65.49Z"/><path class="cls-6" d="M637.44,272.84c-3.24,10.33,31.74,25.66-53.77,46.18s-151.5,30.22-194,31.84-127.38,0-134.79-12.8c-4.55-7.83-24.72-32.69-39.67-50.77a82,82,0,0,1,18-14.45c9.65-5.86,18.86-10.63,27.49-14.77,33.09-15.86,57.75-22.47,66.65-45.83,3.16-8.29,7.27-18.56,12.4-29.23a134.41,134.41,0,0,1,18-1.09c56,.32,65.67,32,65.67,32S455.55,169.8,494,156.53s46.25,10.31,46.25,10.31,37.89-88.15,104.6-96.62V254.07C640.83,264.26,638,271.11,637.44,272.84Z"/><g class="cls-7"><path class="cls-8" d="M500.83,162.23l-.48,45.16-.08,7.35-.42,39.06,0,1.57-.51,47.84H518.5l0-2.24L518,256.55l-.06-6.45-.22-19.88-.06-5.5L517.12,175l-.06-5.46-.31-28.41-.06-5.84L516.15,85l0-5L516,67.11h0l0-1.51-.37-34.35H502.24l-.36,33.1L501.77,75l-.39,36.33-.06,5.85-.12,10.56-3-3.37a1.61,1.61,0,0,0-2.79.66l-1.25,3.35a2.46,2.46,0,0,0,.14,2c1.5,2.64,5.62,9.94,6.73,11.84l-.17,15.84Z"/><polygon class="cls-9" points="518.47 300.97 508.91 300.97 509.42 253.13 509.44 251.56 509.86 212.51 509.94 205.15 510.42 159.99 510.47 155.82 510.91 114.91 510.97 109.06 511.36 72.73 511.47 62.11 511.81 31.25 515.57 31.25 515.94 65.6 515.96 67.11 515.96 67.11 516.1 80.01 516.15 85.02 516.69 135.24 516.75 141.08 517.06 169.49 517.12 174.95 517.65 224.72 517.71 230.22 517.92 250.1 517.99 256.55 518.47 300.97"/><g class="cls-10"><path class="cls-11" d="M517.12,175h-.3a23.44,23.44,0,0,1-7.94-1c.74.27,3.27-1.57,4-2,1.41-.76,2.81-1.58,4.18-2.46h0Z"/><path class="cls-11" d="M508.08,160.89a17.44,17.44,0,0,1-7.25,1.34l.05-4.18.37.13A69.75,69.75,0,0,1,508.08,160.89Z"/><path class="cls-11" d="M516.75,141.08c-1.17,0-2.34-.11-3.51-.22a17.58,17.58,0,0,0-5.88.17,75,75,0,0,0,8.09-4.82,15.25,15.25,0,0,0,1.24-1Z"/><path class="cls-11" d="M511.34,116.77a31.4,31.4,0,0,1-10,.38l.06-5.85A15.19,15.19,0,0,1,511.34,116.77Z"/><path class="cls-11" d="M517.71,230.22c-.86-.09-1.72-.17-2.55-.23-2.88-.18-5.89,0-8.4,1.74a102.64,102.64,0,0,1,10.89-7Z"/><path class="cls-11" d="M509.49,213.19c-.28.83-1.16,1-1.9,1.08q-3.66.33-7.32.47l.08-7.35a12.71,12.71,0,0,1,8.22,3.43A2.45,2.45,0,0,1,509.49,213.19Z"/><path class="cls-11" d="M516.15,85c-3,.92-8.16.18-9.21,1.15,1.3-1.19,6.18-5.78,9.16-6.16Z"/><path class="cls-11" d="M515.94,65.6a42.44,42.44,0,0,0-10.35-1.26,32.82,32.82,0,0,0-3.71,0L501.77,75a103.5,103.5,0,0,1,9.14-5.29c1.2-.61,2.4-1.2,3.61-1.76.27-.13.83-.47,1.44-.81h0Z"/><path class="cls-11" d="M518,256.55l-.5.09c-4.55.75-9.17-.05-13.73-.74-1.31-.2-2.62-.39-3.93-.53l0-1.57,18.08-3.7Z"/></g></g><path class="cls-9" d="M423.4,213.92,427.34,266l.64,8.49,3.4,45.06.14,1.82,4.17,55.2-14.6,1-.15-2.59-3.15-51.31-.46-7.44-1.4-23-.39-6.35L412,229.46l-.38-6.3-2-32.82-.42-6.74-3.55-58-.36-5.78-.91-14.9h0l-.11-1.74L401.84,63.5,412,62.8,414.87,101l.93,12.25L419,155.17l.51,6.74.92,12.19,2-4c.58-1.19,1.7-.87,2.17.62l1.22,3.8a4.15,4.15,0,0,1,0,2.34c-.93,3.12-3.49,11.77-4.19,14L423,209.11Z"/><polygon class="cls-9" points="420.94 375.01 428.21 374.51 424.04 319.32 423.91 317.5 420.5 272.44 419.86 263.95 415.93 211.84 415.56 207.03 412 159.83 411.49 153.08 408.32 111.16 407.4 98.91 404.71 63.3 401.84 63.5 404.27 103.17 404.38 104.91 404.38 104.91 405.29 119.81 405.65 125.59 409.2 183.6 409.62 190.34 411.63 223.16 412.01 229.46 415.54 286.94 415.93 293.29 417.33 316.26 417.79 323.7 420.94 375.01"/><g class="cls-12"><path class="cls-11" d="M412,229.46l.23,0a12.22,12.22,0,0,0,6-1.6c-.54.35-2.61-1.64-3.19-2.05-1.14-.81-2.26-1.68-3.38-2.63h0Z"/><path class="cls-11" d="M417.78,212.76a9.4,9.4,0,0,0,5.62,1.16l-.36-4.81-.28.17A43.06,43.06,0,0,0,417.78,212.76Z"/><path class="cls-11" d="M409.62,190.34a18.52,18.52,0,0,0,2.65-.43,8.87,8.87,0,0,1,4.49-.12,57.41,57.41,0,0,1-6.53-5.14c-.32-.29-.67-.65-1-1.05Z"/><path class="cls-11" d="M411.82,162a15.84,15.84,0,0,0,7.65-.09l-.51-6.74C416.17,155.79,413.58,158.24,411.82,162Z"/><path class="cls-11" d="M415.93,293.29c.65-.14,1.29-.28,1.92-.39a7.34,7.34,0,0,1,6.52,1.57,81.78,81.78,0,0,0-8.83-7.53Z"/><path class="cls-11" d="M420.83,273.21a1.53,1.53,0,0,0,1.54,1.15c1.87.12,3.74.18,5.61.16l-.64-8.49a8.47,8.47,0,0,0-6,4.39A3.72,3.72,0,0,0,420.83,273.21Z"/><path class="cls-11" d="M405.65,125.59c2.39.9,6.22-.21,7.1.86-1.08-1.32-5.16-6.36-7.46-6.64Z"/><path class="cls-11" d="M404.38,104.91h0c.49.36.94.73,1.16.86,1,.58,1.93,1.2,2.88,1.84a81.52,81.52,0,0,1,7.38,5.63L414.87,101a17.58,17.58,0,0,0-2.82.18,22.2,22.2,0,0,0-7.78,2Z"/><path class="cls-11" d="M417.79,323.7l.39.08c3.53.64,7-.53,10.39-1.56,1-.3,2-.59,2.95-.82l-.14-1.82-14.05-3.32Z"/></g><g class="cls-12"><path class="cls-9" d="M569,161.36l-1.35,52.24-.22,8.51-1.17,45.17,0,1.82-1.43,55.34L550.13,324l.1-2.59L552.29,270l.29-7.46.92-23,.26-6.35,2.3-57.55.25-6.31,1.32-32.84.27-6.75,2.33-58.08.23-5.79L561.05,51h0l.07-1.73,1.59-39.72,10.16.33-1,38.29-.32,12.28-1.09,42-.17,6.77L570,121.44l2.4-3.83c.71-1.12,1.78-.7,2.11.84l.82,3.89a4.12,4.12,0,0,1-.19,2.34c-1.23,3-4.66,11.35-5.57,13.52l-.48,18.33Z"/><polygon class="cls-9" points="550.23 321.37 557.52 321.61 558.95 266.27 559 264.45 560.16 219.28 560.38 210.77 561.74 158.53 561.86 153.7 563.08 106.39 563.26 99.62 564.34 57.59 564.66 45.31 565.58 9.62 562.71 9.52 561.12 49.24 561.05 50.98 561.05 50.98 560.46 65.89 560.23 71.68 557.9 129.76 557.63 136.5 556.31 169.35 556.06 175.66 553.76 233.21 553.5 239.56 552.58 262.55 552.29 270.01 550.23 321.37"/><g class="cls-12"><path class="cls-11" d="M556.06,175.66h.23a12.33,12.33,0,0,0,6.09-1c-.57.29-2.43-1.9-3-2.36q-1.59-1.38-3.1-3h0Z"/><path class="cls-11" d="M563.49,159.63a9.43,9.43,0,0,0,5.47,1.73l.12-4.83-.29.14A43,43,0,0,0,563.49,159.63Z"/><path class="cls-11" d="M557.63,136.51a20.09,20.09,0,0,0,2.68-.17,9,9,0,0,1,4.48.34,58.7,58.7,0,0,1-6-5.77c-.29-.33-.59-.72-.91-1.15Z"/><path class="cls-11" d="M562.68,108.53a16.17,16.17,0,0,0,7.63.69l.17-6.77C567.64,102.79,564.82,105,562.68,108.53Z"/><path class="cls-11" d="M553.5,239.56c.67-.07,1.32-.15,2-.19a7.32,7.32,0,0,1,6.33,2.22,81.3,81.3,0,0,0-8-8.38Z"/><path class="cls-11" d="M560.42,220.08a1.52,1.52,0,0,0,1.4,1.3c1.86.31,3.71.55,5.57.73l.22-8.51a8.46,8.46,0,0,0-6.4,3.76A3.7,3.7,0,0,0,560.42,220.08Z"/><path class="cls-11" d="M560.23,71.68c2.28,1.14,6.21.43,7,1.57-.94-1.42-4.49-6.84-6.74-7.36Z"/><path class="cls-11" d="M561.05,51h0c.45.4.87.82,1.07,1,.9.68,1.8,1.39,2.68,2.13a81.39,81.39,0,0,1,6.77,6.34l.32-12.28a16.78,16.78,0,0,0-2.83-.1,21.76,21.76,0,0,0-7.94,1.2Z"/><path class="cls-11" d="M552.29,270l.38.11c3.44,1,7,.18,10.49-.5,1-.2,2-.39,3-.52l0-1.82-13.64-4.73Z"/></g></g><path class="cls-13" d="M591.45,38.38l-7.78,1.56S593.06,74.59,573,79.2s-18.46-7.13-18.46-7.13l-7.45,20.34-6.8-12.36s-5.83,26.61-25.91,23.94c-17.1-2.27-22.92-21.24-24.28-26.82,1.71,8.27,8.72,47.32-10.37,52.86,4.86,5.87,6.51,24.23,6.51,24.23l-16.29-9.06s-3.5,17.81-17.05,19.6-13.5-9.63-13.5-9.63l-8.3,14-.73-19.41s-8,20.29-25.06,13c-13.52-5.75-10.36-14.46-8.44-17.85-3.64,5.38-17.53,23.89-33.09,17.85a35.9,35.9,0,0,1-9.61-5.49c8-12.06,17.34-23,28.28-30.2a54.4,54.4,0,0,1,17.5-7.8c38-9.07,53.33-7.16,67.9-33.16,3.55-6.33,7.44-13,11.69-19.54.71-1.1,1.42-2.19,2.16-3.28,12.85-19.17,28.87-36.93,48.66-42.67h63.31c-1.52,5.93-9,12.4-9,12.4Z"/><path class="cls-14" d="M467,104.7c4.86,5.87,6.51,24.23,6.51,24.23l-16.29-9.06s-3.5,17.81-17.05,19.6-13.5-9.63-13.5-9.63l-8.3,14-.73-19.4s-7.95,20.29-25.06,13c-7.13-3-9.63-6.89-10.1-10.36a54.4,54.4,0,0,1,17.5-7.8c38-9.07,53.33-7.16,67.9-33.16,3.55-6.33,7.44-13,11.69-19.54C480.87,81.19,480.09,100.88,467,104.7Z"/><path class="cls-15" d="M560.22,53.87c-20.08,4.6-18.46-7.14-18.46-7.14l-7.45,20.35-6.8-12.36s-5.83,26.61-25.91,23.94c-10.12-1.34-16.29-8.54-19.92-15.35,12.85-19.17,28.87-36.93,48.66-42.67h41.82C573.82,30.78,575,50.48,560.22,53.87Z"/><path class="cls-16" d="M435.69,308S309,354.78,307.28,357.35s-69.58,4.55-74.19,7c-2.45,1.29-14-3.62-24.31-8.69l-6.63-13.07s-15.55-41.4,31.09-69.71c9.65-5.86,18.86-10.63,27.49-14.77,41.09,5.77,44.59,28.67,44.7,29.46-.07-.68-1.72-18.73,22.19-20.27,24.37-1.58,32.15,28.62,32.15,28.62s14.18-29,31.05-27S435.69,308,435.69,308Z"/><path class="cls-17" d="M644.87,131s-15-4.89-42.62,7.24-25.7,43.68-25.7,43.68l-9.29-13.83s-.21,9.09,1.73,13.83a31.23,31.23,0,0,0,4.32,7.58s-10.58-5.75-16-4.84c5,6.1,13,10.63,13,10.63A13.89,13.89,0,0,0,554.52,197c-7.77,6.53-5.18,14.84-5.18,14.84s-1.55-6.32-18.26-2.78-25.79,37.68-42,34.54-28.21,4-28,12.62,1.25,11.07,1.25,11.07-5.44-5.1-12-1.83-8,15.55-8,15.55-.14-6.66-11.05-.83S423.23,308,423.23,308l221.64-46.58Z"/><path class="cls-18" d="M308.74,250.48l3.65,52.14.59,8.49,3.16,45.08.12,1.81,3.87,55.22,14.58-1.12-.21-2.58-4.32-51.22-.63-7.44-1.93-22.92-.53-6.34-4.84-57.39-.53-6.3L319,225.16l-.56-6.73-4.88-57.92-.49-5.77-1.25-14.88h0l-.15-1.73-3.34-39.61-10.13.78,2.67,38.21.86,12.25,2.93,41.94.48,6.75.85,12.2-2.57-3.72c-.75-1.09-1.81-.62-2.06.93l-.66,3.93a4.14,4.14,0,0,0,.3,2.32c1.36,3,5.15,11.14,6.16,13.27l1.28,18.29Z"/><polygon class="cls-9" points="334.5 409.52 327.22 410.08 323.36 354.86 323.23 353.04 320.07 307.96 319.48 299.47 315.83 247.34 315.5 242.53 312.19 195.31 311.72 188.56 308.78 146.62 307.92 134.36 305.43 98.74 308.29 98.52 311.63 138.13 311.78 139.86 311.78 139.86 313.03 154.74 313.52 160.51 318.4 218.43 318.96 225.16 321.72 257.91 322.25 264.21 327.09 321.6 327.62 327.94 329.56 350.86 330.18 358.3 334.5 409.52"/><g class="cls-10"><path class="cls-11" d="M322.25,264.21H322a12.32,12.32,0,0,1-6.12-.72c.58.27,2.34-2,2.85-2.49,1-1,2-2,3-3.09h0Z"/><path class="cls-11" d="M314.13,248.52a9.39,9.39,0,0,1-5.39,2l-.34-4.81.3.13A42.35,42.35,0,0,1,314.13,248.52Z"/><path class="cls-11" d="M319,225.16a20,20,0,0,1-2.68,0,8.93,8.93,0,0,0-4.46.53,57.8,57.8,0,0,0,5.72-6c.27-.34.56-.75.86-1.19Z"/><path class="cls-11" d="M312.68,197.43a15.9,15.9,0,0,1-7.58,1l-.48-6.75C307.48,191.92,310.39,194,312.68,197.43Z"/><path class="cls-11" d="M327.62,327.94c-.66-.05-1.32-.1-2-.11a7.37,7.37,0,0,0-6.23,2.49,82.37,82.37,0,0,1,7.66-8.72Z"/><path class="cls-11" d="M319.86,308.78a1.52,1.52,0,0,1-1.35,1.35c-1.84.4-3.68.72-5.53,1l-.59-8.49a8.46,8.46,0,0,1,6.56,3.47A3.73,3.73,0,0,1,319.86,308.78Z"/><path class="cls-11" d="M313.52,160.51c-2.24,1.24-6.19.7-6.91,1.88.89-1.46,4.19-7,6.42-7.65Z"/><path class="cls-11" d="M311.63,138.13a22,22,0,0,0-8-.85,16.76,16.76,0,0,0-2.82.23l.86,12.25a81.69,81.69,0,0,1,6.48-6.64c.85-.77,1.71-1.52,2.58-2.24.2-.16.6-.59,1-1h0Z"/><path class="cls-11" d="M330.18,358.3l-.38.13c-3.39,1.14-7,.48-10.5-.05-1-.15-2-.29-3-.38l-.12-1.81,13.41-5.33Z"/></g><path class="cls-19" d="M618.46,131l.49,45.17.08,7.35.42,39,0,1.58L620,272H600.8l0-2.24.48-44.42.07-6.45.21-19.88.06-5.5.54-49.77.06-5.46.3-28.41.07-5.84.54-50.23.05-5,.14-12.9h0v-1.5L603.72,0h13.34l.35,33.1.12,10.61.39,36.34L618,85.9l.11,10.56,3-3.37a1.61,1.61,0,0,1,2.79.66l1.25,3.34a2.42,2.42,0,0,1-.15,2c-1.49,2.65-5.62,10-6.72,11.84l.17,15.85Z"/><polygon class="cls-9" points="600.83 269.72 610.39 269.72 609.88 221.88 609.86 220.31 609.44 181.25 609.36 173.9 608.87 128.74 608.83 124.56 608.39 83.66 608.33 77.81 607.93 41.48 607.82 30.86 607.49 0 603.72 0 603.36 34.35 603.34 35.85 603.34 35.86 603.2 48.76 603.15 53.76 602.61 103.99 602.54 109.83 602.24 138.24 602.18 143.7 601.64 193.47 601.58 198.97 601.37 218.85 601.3 225.3 600.83 269.72"/><g class="cls-10"><path class="cls-11" d="M602.18,143.7h.3a23.73,23.73,0,0,0,7.94-1c-.74.27-3.27-1.58-4-2-1.42-.76-2.81-1.59-4.18-2.47h0Z"/><path class="cls-11" d="M611.22,129.64a17.38,17.38,0,0,0,7.24,1.33l0-4.17-.38.13A68.11,68.11,0,0,0,611.22,129.64Z"/><path class="cls-11" d="M602.54,109.83c1.17,0,2.35-.11,3.51-.22a17.58,17.58,0,0,1,5.88.16,72.25,72.25,0,0,1-8.08-4.81,15.25,15.25,0,0,1-1.24-1Z"/><path class="cls-11" d="M608,85.52a31.39,31.39,0,0,0,10,.38l-.06-5.85A15.17,15.17,0,0,0,608,85.52Z"/><path class="cls-11" d="M601.58,199c.87-.09,1.72-.18,2.56-.23,2.87-.18,5.89,0,8.39,1.74a97.67,97.67,0,0,0-10.89-7Z"/><path class="cls-11" d="M609.8,181.94c.28.82,1.16,1,1.9,1.08q3.66.33,7.33.47l-.08-7.35a12.78,12.78,0,0,0-8.23,3.42A2.5,2.5,0,0,0,609.8,181.94Z"/><path class="cls-11" d="M603.15,53.76c3.05.92,8.16.19,9.21,1.16-1.3-1.2-6.18-5.78-9.16-6.16Z"/><path class="cls-11" d="M603.34,35.85h0c.6.33,1.17.68,1.44.8,1.21.57,2.41,1.15,3.6,1.77,3.11,1.59,6.17,3.36,9.15,5.28l-.12-10.61a32.63,32.63,0,0,0-3.7,0,42.52,42.52,0,0,0-10.36,1.26Z"/><path class="cls-11" d="M601.3,225.3l.51.08c4.55.76,9.17,0,13.73-.73,1.3-.2,2.61-.39,3.93-.53l0-1.58-18.08-3.69Z"/></g><path class="cls-20" d="M513.79,288.49s-22-20.66-27.57-40a137.83,137.83,0,0,1,32.58,36.26Z"/><line class="cls-21" x1="486.22" y1="248.48" x2="516.5" y2="286.03"/><path class="cls-22" d="M369,326s-22-20.66-27.56-40A137.83,137.83,0,0,1,374,322.29Z"/><line class="cls-21" x1="341.44" y1="286.03" x2="371.71" y2="323.58"/><path class="cls-23" d="M514,294.41s-14.09-56.68-7.74-78.51c12.27,16.59,15.44,73.4,15.44,73.4Z"/><line class="cls-24" x1="506.26" y1="215.9" x2="518.44" y2="291.14"/><path class="cls-25" d="M606.29,271.88s-35.45-46.41-38.3-69c17.85,10.34,43.35,61.21,43.35,61.21Z"/><line class="cls-24" x1="567.99" y1="202.92" x2="609.07" y2="267.12"/><path class="cls-19" d="M515.13,281s5.72-54.65,16-69.62c3.88,20.2-9.31,69.33-9.31,69.33Z"/><line class="cls-26" x1="531.08" y1="211.36" x2="519.05" y2="280.54"/><path class="cls-19" d="M322.35,330.68s5.71-54.65,15.94-69.61c3.89,20.2-9.3,69.33-9.3,69.33Z"/><line class="cls-26" x1="338.29" y1="261.07" x2="326.26" y2="330.25"/><path class="cls-19" d="M616.94,260.5s5.71-54.65,15.94-69.62c3.89,20.2-9.3,69.33-9.3,69.33Z"/><line class="cls-26" x1="632.88" y1="190.88" x2="620.85" y2="260.06"/><path class="cls-27" d="M517.82,282.2s4.75-22.41,18.57-34.15a79.46,79.46,0,0,1-12.09,35.63Z"/><line class="cls-26" x1="536.39" y1="248.05" x2="521.7" y2="282.81"/><path class="cls-28" d="M462.61,183.76a18.41,18.41,0,0,1-.44,2.69c-.5,2.09-1.56,4.67-3.72,6-1.32.56-2.1-1.14-2.1-1.14L455,192.58l-1.57-1.34-1.77-1.52.13-.22c.91-.08,1.09-1.3,2.17-1.9s-.31-2.79,1.27-2.93c.85-.08.91.49.86,1.12s-.17,1.11,0,1.35,2.1-.15,3.76-1a5.33,5.33,0,0,0,2.69-2.49Z"/><path class="cls-9" d="M456.05,185.79a1.68,1.68,0,0,0-.29,0c-.79.21-2.07,3.92-2.37,5.41l-1.77-1.52.13-.22c.91-.08,1.09-1.3,2.17-1.9s-.31-2.79,1.27-2.93C456,184.59,456.1,185.16,456.05,185.79Z"/><path class="cls-9" d="M462.61,183.76a18.41,18.41,0,0,1-.44,2.69l-2.32-.34a5.33,5.33,0,0,0,2.69-2.49Z"/><path class="cls-29" d="M467.83,249.92l-5.33,2.74-5.36,2.77-1.57-.87-.73-.39c-1.82-1-6.24-3.38-10.65-6.12-4.09-2.53-8.16-5.36-10.15-7.63-.33,1.81-6,14.32-8.71,20.23l-1.42,3.09s-1.37-.69-3.1-1.65c-3.21-1.79-7.66-4.5-7-5.48a6,6,0,0,0,.57-1.24,226.29,226.29,0,0,0,6.24-23.15c.35-1.76.72-3.3,1.08-4.63a39.86,39.86,0,0,1,2.17-6.44l5.34-1a.73.73,0,0,0,.64.64c3.87.67,13.73,4.9,14.44,4.32a.3.3,0,0,0,.11-.15l1.24,1.38c2.95,3.21,7.54,8.1,11.77,12.58l5.31,5.61,3.57,3.76Z"/><path class="cls-9" d="M445.68,226.39c-.84.44-2.61.87-6.3.5-5.74-.58-12.69-.47-17.64.7a39.86,39.86,0,0,1,2.17-6.44l5.34-1a.73.73,0,0,0,.64.64c3.87.67,13.73,4.9,14.44,4.32a.3.3,0,0,0,.11-.15Z"/><path class="cls-30" d="M463.21,186.06a4.36,4.36,0,0,0-.6-2.3l-.07-.14c-.76,2.28-6,4-6.45,3.51s.67-2.61-.9-2.46-.15,2.28-1.27,2.93-1.26,1.82-2.17,1.9h-.13c-1,0-1.5-1.34-1.16-3.11s-1.79-4.8-.74-6.71,3.33-.3,3.33-.3,2.35-5.34,8.1-2.32C466.51,179.87,463.21,186.06,463.21,186.06Z"/><path class="cls-31" d="M444.33,214.94c-1.48,4.66.45,9.07.11,10.07a.3.3,0,0,1-.11.15c-.71.58-10.57-3.65-14.44-4.32a.73.73,0,0,1-.64-.64C428.46,216.66,440,200,440,200l7.05-10.54,2.95.83a8.4,8.4,0,0,1,1.6-.83,47.65,47.65,0,0,1,3.91,3.56c.25.51-.58,3.17-.58,3.17S445.92,210,444.33,214.94Z"/><path class="cls-32" d="M450.24,192.58s0-.32-.74-.47a10,10,0,0,0-3,0c-2.12.24-4.84,2.48-7.26,4.51-1.93,1.62-3.67,3.11-4.76,3.33-2.44.51-7,1.15-7,1.15s-.12-2.08-.08-4.18a22.36,22.36,0,0,1,.19-2.78,5.55,5.55,0,0,1,.25-1,7.39,7.39,0,0,1,1.69-2.07l0,0c.28-.27.59-.55.92-.81l.17-.15h0a16.13,16.13,0,0,1,5.82-3.2C439.59,186.23,451.67,187.62,450.24,192.58Z"/><path class="cls-33" d="M439.23,196.64c-6.45,7.73-10,21.32-12.82,23.27-2.09,1.47-5.19,2.31-7.65,1h0c-1.51-.82-2.78-2.44-3.43-5.23-1.45-6.16,8.9-17.88,12.27-21.5a22.36,22.36,0,0,0-.19,2.78c0,2.1.08,4.18.08,4.18s4.54-.64,7-1.15C435.56,199.75,437.3,198.26,439.23,196.64Z"/><path class="cls-34" d="M450.24,192.58c-5.84,2.61-14.61,29.42-21.88,30.57-7.08,1.12-9.47-2.08-9.6-2.26,2.46,1.33,5.56.49,7.65-1,2.78-1.95,6.37-15.54,12.82-23.27,2.42-2,5.14-4.27,7.26-4.51a10,10,0,0,1,3,0C450.21,192.26,450.24,192.54,450.24,192.58Z"/><path class="cls-34" d="M430.34,198.07a.45.45,0,0,1-.53.37.46.46,0,1,1,.53-.37Z"/><path class="cls-35" d="M469.88,252.37a3.9,3.9,0,0,1-.83.49c-.5.25-1.21.58-2,.94h0a94,94,0,0,1-8.78,3.4,3.35,3.35,0,0,1-1.59.28c-.72-.51-1.8-3.31-1.8-3.31a28.42,28.42,0,0,1,4.33-2.35c2.47-1.23,5.42-2.65,7.16-3.48l1.5-.72S470.32,251.79,469.88,252.37Z"/><path class="cls-35" d="M426.15,261.06s-1.77,4.53-2.49,4.54a1.73,1.73,0,0,1-.43-.14c-.6-.25-1.72-.83-3-1.55-2.45-1.34-5.58-3.19-7.34-4.41-.83-.58-1.35-1-1.36-1.2-.05-.88,1.5-3.46,1.5-3.46a4.86,4.86,0,0,1,1.43.53c1.77.79,4.87,2.3,7.44,3.56l3.47,1.72Z"/><path class="cls-36" d="M469.05,252.86c-.26,4.73-5.53,27.29-5.53,27.29s-1.3,2.05-2.6,2.05a5.38,5.38,0,0,1-2.69-1.08V257.2a94,94,0,0,0,8.78-3.4h0C467.84,253.44,468.55,253.11,469.05,252.86Z"/><path class="cls-37" d="M423.23,265.46c-2.33,5.81-9.89,24.59-12.2,28.87a2.41,2.41,0,0,1-.6.86c-1.15.43-3.88,1.3-5,0-1-1.15,5.86-29.27,7.45-35.69,1.76,1.22,4.89,3.07,7.34,4.41C421.51,264.63,422.63,265.21,423.23,265.46Z"/><path class="cls-9" d="M425.33,260.65l.82.41s-1.77,4.53-2.49,4.54a1.73,1.73,0,0,1-.43-.14c-2.33,5.81-9.89,24.59-12.2,28.87a11.41,11.41,0,0,1-2.06-.72s5.86-14.08,11.22-29.7c.2-.61.41-1.21.62-1.82l1.05-3.16c3.23-9.86,6-19.81,6.78-26.82a29.47,29.47,0,0,0,5.4,8.31C433.71,242.23,428,254.74,425.33,260.65Z"/><path class="cls-9" d="M462.76,244.58c-1.19,1.54-3,3.39-4.53,3.47-2.66.14-7.28-3.74-9.44-7.27s-1.82-4.69-1.82-4.69L457.45,239Z"/><path class="cls-35" d="M455.19,238.18s-4.63.82-5.42.75a2.4,2.4,0,0,1-.66-.22h0c-1-.46-2.28-1.54-2.28-2.22,0-.86,4.1-4.46,4.1-4.46,3.24-1.8,3.67.65,4.27,1.58a1.21,1.21,0,0,1,.13.34A14.77,14.77,0,0,1,455.19,238.18Z"/><path class="cls-29" d="M456.46,245.41c-.9-.22-5.15-4.46-7.35-6.7a2.4,2.4,0,0,0,.66.22c.79.07,5.42-.75,5.42-.75a14.77,14.77,0,0,0,.13-4.24c1.48,1.41,5.7,5.55,5.82,6.86C461.28,242.38,457.69,245.69,456.46,245.41Z"/><path class="cls-38" d="M453.78,236.39a.45.45,0,1,1-.45-.45A.45.45,0,0,1,453.78,236.39Z"/><path class="cls-34" d="M439.55,223.36a16.27,16.27,0,0,1-8.47-2.73l.53-.86c4.17,2.57,8,3.22,11.51,1.95,6.07-2.21,9.64-9.65,11.57-15.5,3.85-11.7-4.27-14.59-4.61-14.71l-.09-1c-.54-.27,9.83,3.38,5.65,16.05-2,6.06-5.73,13.78-12.17,16.14A11.36,11.36,0,0,1,439.55,223.36Z"/><path class="cls-39" d="M454.63,210.91c-2.59,5.11-13.39,14.47-15,8.5-.86-3.23.43-7.71,1.79-11.15a46.8,46.8,0,0,1,2.38-5.12l6.05,4.22-.54,1.1c-.9,1.81-1.8,3.5-1.84,3.56s.56-.37,6-4a4.45,4.45,0,0,1,.89-2.94,1.51,1.51,0,0,1,.81-.55c.39,0-.62,1.91,0,1.84s.54-1,1.65-3.24C458.51,204.07,457.79,209.33,454.63,210.91Z"/><line class="cls-26" x1="447.5" y1="212.03" x2="445.68" y2="214.67"/><path class="cls-26" d="M434,240.42s-4.1-4.21-5.4-8.31"/><path class="cls-26" d="M456.35,191.33a5.36,5.36,0,0,1-1.19-2.28"/><path class="cls-9" d="M443.83,203.14l6.05,4.22-.54,1.1a12.22,12.22,0,0,1-7.89-.2A46.8,46.8,0,0,1,443.83,203.14Z"/><path class="cls-40" d="M455.17,204.54l-.81.55A1.51,1.51,0,0,1,455.17,204.54Z"/><path class="cls-41" d="M453.4,194.16c2.73.71,1.73,5,.72,7a69.45,69.45,0,0,1-4.24,6.24s-5-.84-6.05-4.22C449.3,194.79,451.43,193.64,453.4,194.16Z"/><path class="cls-9" d="M460.46,269.28c-.72,7.7.68,11.7.68,11.7a19.93,19.93,0,0,0-3-.48l.12-23.3a3.35,3.35,0,0,1-1.59.28c-.72-.51-1.8-3.31-1.8-3.31-1.82-1-6.24-3.38-10.65-6.12l15,3.77,3.33.84L467,253.8h0C466.86,254,461.16,261.68,460.46,269.28Z"/><path class="cls-30" d="M458.23,280.15s-4.09,12.06-3.81,13.5,1,1.3,1,1.3,21.74-5.19,21.75-5.25c.29-2.74-9.74-2.09-13.19-9.55Z"/><path class="cls-9" d="M420,206.08a8.86,8.86,0,0,0-2.81,4.6,7.87,7.87,0,0,0,0,4.75,10.88,10.88,0,0,0,5.67,2.1c3.29-2.21,4.53-8.8,4.53-8.8S423.79,206,420,206.08Z"/><path class="cls-30" d="M405.25,293.18s-4,12.11-3.66,13.54,1.05,1.29,1.05,1.29,21.68-5.44,21.68-5.5c.26-2.74-10-1.93-13.54-9.35Z"/><polygon class="cls-42" points="644.87 248.48 644.87 383.38 184.01 383.38 178.83 362.85 264.27 341.88 307.27 331.33 644.87 248.48"/><path class="cls-43" d="M469.05,383.38s-15.79-31.76,34.63-58.54,69.95,5.62,69.95,5.62,4.5-49.36,71.24-53.18v106.1Z"/><path class="cls-44" d="M264.27,341.88c-6.86,7.22-13.69,14.71-18.08,20.32-5.17,6.61-4.78,14.2-2.47,21.18H301c4.59-13.12,5.87-37.91,6.24-52.05Z"/><path class="cls-45" d="M422.91,359.06a4.71,4.71,0,1,1-4.71-4.71A4.71,4.71,0,0,1,422.91,359.06Z"/><circle class="cls-46" cx="464.86" cy="306.04" r="2.83"/><circle class="cls-47" cx="384.07" cy="322.66" r="2.83"/><circle class="cls-48" cx="542.77" cy="293.16" r="2.83"/><circle class="cls-49" cx="623.68" cy="265.66" r="2.83"/><circle class="cls-50" cx="323.43" cy="360.94" r="2.83"/><circle class="cls-51" cx="381.24" cy="345.82" r="1.55"/><path class="cls-19" d="M571,387.14s-46.31-7.78-67.36-40.16c53.11,8.42,71.25,31.41,71.25,31.41s-32-45.8-39.19-73.59c26.23,15.29,45,65.17,45,65.17s-7.13-20.73-7.13-39.51C582.05,356,584.32,368,584.32,368s-2.59-78.65,18.14-99.08c4.53,41.43-10.69,100.7-10.69,100.7s12.63-56.21,31.09-73.77c1.62,31-17.49,74.74-17.49,74.74s18.76-42.56,39.5-58c0,28.89-26.87,62.57-26.87,62.57s26.24-38.54,57.65-49.55c-12.63,58.95-44.37,77.73-46,78s-40.81-2.91-42.42-3.23S571,387.14,571,387.14Z"/></g><path class="cls-52" d="M391.58,310.64l-26.52,6.47.71-42.13,0-1.82.58-45.19.11-8.51.67-52.26.07-4.83.23-18.34c-1.53-2.19-7.24-10.64-9.31-13.69a2.42,2.42,0,0,1-.2-2.34l1.73-3.87a2.42,2.42,0,0,1,3.87-.77l4.13,3.91.16-12.23.08-6.76.54-42L368.61,54l.5-33.31h18.46l.51,34.76,0,1.74h0l.19,14.93.07,5.79.75,58.12.09,6.75.42,32.87.08,6.32.74,57.59.09,6.36.29,23,.1,7.46.66,34.3"/><polygon class="cls-9" points="391.58 310.64 378.34 313.85 379.05 272.39 379.07 270.57 379.65 225.38 379.76 216.87 380.44 164.61 380.5 159.78 381.11 112.45 381.19 105.69 381.74 63.64 381.89 51.36 382.35 20.64 387.56 20.64 388.08 55.4 388.1 57.14 388.1 57.14 388.29 72.07 388.37 77.86 389.11 135.98 389.2 142.73 389.62 175.6 389.7 181.92 390.44 239.51 390.53 245.87 390.82 268.88 390.92 276.34 391.58 310.64"/><g class="cls-10"><path class="cls-11" d="M389.7,181.92h-.41c-3.7,0-7.46-.1-11-1.19,1,.31,4.53-1.82,5.52-2.26q2.94-1.33,5.79-2.86h0Z"/><path class="cls-11" d="M377.19,165.65a28.26,28.26,0,0,1-10,1.55l.07-4.83.52.15C370.93,163.42,374.09,164.46,377.19,165.65Z"/><path class="cls-11" d="M389.2,142.73c-1.62,0-3.24-.13-4.86-.25a29.18,29.18,0,0,0-8.14.19,108.92,108.92,0,0,0,11.19-5.57c.54-.32,1.12-.7,1.72-1.12Z"/><path class="cls-11" d="M381.7,114.61a52.2,52.2,0,0,1-13.87.43l.08-6.76A22.35,22.35,0,0,1,381.7,114.61Z"/><path class="cls-11" d="M390.53,245.87c-1.2-.09-2.38-.2-3.54-.26-4-.2-8.15,0-11.62,2,3.8-2.17,9.34-5.66,15.07-8.11Z"/><path class="cls-11" d="M379.15,226.17c-.39,1-1.61,1.17-2.63,1.25-3.38.25-6.76.44-10.15.55l.11-8.51a19.6,19.6,0,0,1,11.39,4C378.72,224.1,379.55,225.17,379.15,226.17Z"/><path class="cls-11" d="M388.36,77.86c-4.22,1.06-11.3.22-12.75,1.34,1.8-1.39,8.55-6.69,12.68-7.13Z"/><path class="cls-11" d="M388.08,55.4a69.37,69.37,0,0,0-14.34-1.46c-1.68-.06-3.42-.1-5.13,0l-.16,12.28q6.19-3.35,12.66-6.12c1.66-.71,3.32-1.38,5-2,.38-.14,1.16-.54,2-.93h0Z"/><path class="cls-11" d="M390.92,276.34l-.7.1c-6.31.88-12.7-.05-19-.85-1.8-.23-3.61-.45-5.43-.61l0-1.82,25-4.28Z"/></g><g class="cls-53"><path class="cls-54" d="M155.27,373.51c-18.85-6.4-46.26-19.37-62.05-43.67,65,10.3,87.17,38.44,87.17,38.44s-39.19-56-47.94-90C164.54,297,187.52,358,187.52,358s-8.71-25.37-8.71-48.35c10.3,31.31,13.07,46,13.07,46s-3.17-96.22,22.19-121.22c5.55,50.68-13.07,123.2-13.07,123.2s15.45-68.77,38-90.26c2,37.95-21.4,91.45-21.4,91.45s23-52.08,48.33-71c0,35.34-32.88,76.56-32.88,76.56s32.1-47.16,70.54-60.63c-15.46,72.12-54.29,95.1-56.27,95.5s-49.93-3.57-51.91-4a10.79,10.79,0,0,1-2.56-1.64A134.2,134.2,0,0,0,155.27,373.51Z"/></g></g></g></g></svg>